2025-02-06 12:40:54,974 - INFO - Lossless video created: never_gonna_give_you_up_lossless.mkv
2025-02-06 12:41:05,485 - INFO - Lossless video created: agata_sai_lossless.mkv
2025-02-06 12:41:13,136 - ERROR - FFmpeg error: ffmpeg version 7.1-essentials_build-www.gyan.dev Copyright (c) 2000-2024 the FFmpeg developers
  built with gcc 14.2.0 (Rev1, Built by MSYS2 project)
  configuration: --enable-gpl --enable-version3 --enable-static --disable-w32threads --disable-autodetect --enable-fontconfig --enable-iconv --enable-gnutls --enable-libxml2 --enable-gmp --enable-bzlib --enable-lzma --enable-zlib --enable-libsrt --enable-libssh --enable-libzmq --enable-avisynth --enable-sdl2 --enable-libwebp --enable-libx264 --enable-libx265 --enable-libxvid --enable-libaom --enable-libopenjpeg --enable-libvpx --enable-mediafoundation --enable-libass --enable-libfreetype --enable-libfribidi --enable-libharfbuzz --enable-libvidstab --enable-libvmaf --enable-libzimg --enable-amf --enable-cuda-llvm --enable-cuvid --enable-dxva2 --enable-d3d11va --enable-d3d12va --enable-ffnvcodec --enable-libvpl --enable-nvdec --enable-nvenc --enable-vaapi --enable-libgme --enable-libopenmpt --enable-libopencore-amrwb --enable-libmp3lame --enable-libtheora --enable-libvo-amrwbenc --enable-libgsm --enable-libopencore-amrnb --enable-libopus --enable-libspeex --enable-libvorbis --enable-librubberband
  libavutil      59. 39.100 / 59. 39.100
  libavcodec     61. 19.100 / 61. 19.100
  libavformat    61.  7.100 / 61.  7.100
  libavdevice    61.  3.100 / 61.  3.100
  libavfilter    10.  4.100 / 10.  4.100
  libswscale      8.  3.100 /  8.  3.100
  libswresample   5.  3.100 /  5.  3.100
  libpostproc    58.  3.100 / 58.  3.100
-vsync is deprecated. Use -fps_mode
Input #0, mov,mp4,m4a,3gp,3g2,mj2, from 'never_gonna_give_you_up.mp4':
  Metadata:
    major_brand     : isom
    minor_version   : 512
    compatible_brands: isomiso6iso2avc1mp41
    title           : Rick Astley - Never Gonna Give You Up (Official Music Video)
    artist          : Rick Astley
    encoder         : Lavf60.3.100
  Duration: 00:03:32.13, start: 0.000000, bitrate: 762 kb/s
  Stream #0:0[0x1](und): Video: h264 (Main) (avc1 / 0x31637661), yuv420p(tv, bt709, progressive), 1280x720 [SAR 1:1 DAR 16:9], 630 kb/s, 25 fps, 25 tbr, 12800 tbn (default)
      Metadata:
        handler_name    : ISO Media file produced by Google Inc.
        vendor_id       : [0][0][0][0]
  Stream #0:1[0x2](eng): Audio: aac (LC) (mp4a / 0x6134706D), 44100 Hz, stereo, fltp, 127 kb/s (default)
      Metadata:
        handler_name    : ISO Media file produced by Google Inc.
        vendor_id       : [0][0][0][0]
[AVFormatContext @ 000001ce41fcf5c0] Unable to choose an output format for 'pipe:'; use a standard extension for the filename or specify the format manually.
[out#0 @ 000001ce41fd5880] Error initializing the muxer for pipe:: Invalid argument
Error opening output file -.
Error opening output files: Invalid argument

2025-02-06 12:41:13,487 - ERROR - FFmpeg error: ffmpeg version 7.1-essentials_build-www.gyan.dev Copyright (c) 2000-2024 the FFmpeg developers
  built with gcc 14.2.0 (Rev1, Built by MSYS2 project)
  configuration: --enable-gpl --enable-version3 --enable-static --disable-w32threads --disable-autodetect --enable-fontconfig --enable-iconv --enable-gnutls --enable-libxml2 --enable-gmp --enable-bzlib --enable-lzma --enable-zlib --enable-libsrt --enable-libssh --enable-libzmq --enable-avisynth --enable-sdl2 --enable-libwebp --enable-libx264 --enable-libx265 --enable-libxvid --enable-libaom --enable-libopenjpeg --enable-libvpx --enable-mediafoundation --enable-libass --enable-libfreetype --enable-libfribidi --enable-libharfbuzz --enable-libvidstab --enable-libvmaf --enable-libzimg --enable-amf --enable-cuda-llvm --enable-cuvid --enable-dxva2 --enable-d3d11va --enable-d3d12va --enable-ffnvcodec --enable-libvpl --enable-nvdec --enable-nvenc --enable-vaapi --enable-libgme --enable-libopenmpt --enable-libopencore-amrwb --enable-libmp3lame --enable-libtheora --enable-libvo-amrwbenc --enable-libgsm --enable-libopencore-amrnb --enable-libopus --enable-libspeex --enable-libvorbis --enable-librubberband
  libavutil      59. 39.100 / 59. 39.100
  libavcodec     61. 19.100 / 61. 19.100
  libavformat    61.  7.100 / 61.  7.100
  libavdevice    61.  3.100 / 61.  3.100
  libavfilter    10.  4.100 / 10.  4.100
  libswscale      8.  3.100 /  8.  3.100
  libswresample   5.  3.100 /  5.  3.100
  libpostproc    58.  3.100 / 58.  3.100
-vsync is deprecated. Use -fps_mode
Input #0, mov,mp4,m4a,3gp,3g2,mj2, from 'shrek_1.mp4':
  Metadata:
    major_brand     : isom
    minor_version   : 1
    compatible_brands: isomavc1
    creation_time   : 2012-02-29T13:49:31.000000Z
  Duration: 01:30:04.54, start: 0.000000, bitrate: 1580 kb/s
  Stream #0:0[0x1](und): Video: h264 (High) (avc1 / 0x31637661), yuv420p(progressive), 1920x1080 [SAR 1:1 DAR 16:9], 1513 kb/s, 23.98 fps, 23.98 tbr, 96k tbn (default)
      Metadata:
        creation_time   : 2012-02-29T13:49:31.000000Z
        vendor_id       : [0][0][0][0]
  Stream #0:1[0x2](und): Audio: aac (HE-AAC) (mp4a / 0x6134706D), 48000 Hz, stereo, fltp, 64 kb/s (default)
      Metadata:
        creation_time   : 2012-02-29T13:53:25.000000Z
        handler_name    : GPAC ISO Audio Handler
        vendor_id       : [0][0][0][0]
[AVFormatContext @ 0000022ac8cb4cc0] Unable to choose an output format for 'pipe:'; use a standard extension for the filename or specify the format manually.
[out#0 @ 0000022ac8caf980] Error initializing the muxer for pipe:: Invalid argument
Error opening output file -.
Error opening output files: Invalid argument

2025-02-06 12:41:15,552 - ERROR - FFmpeg error: None
